<svg width="199" height="51" viewBox="0 0 199 51" fill="none" xmlns="http://www.w3.org/2000/svg">
<rect width="199" height="51" fill="#F5F5F5"/>
<g id="onda2">
<path id="Vector 1" d="M1 45.5L7.5 38.5C8.74895 37.3596 9.52937 36.821 11 36C13.559 34.5878 15.1064 33.8252 18 32.5C19.2568 32.1067 20.0233 31.8884 21.5 31.5C22.5779 31.205 23.2374 31.0983 24.5 31C25.7987 30.9316 26.5668 30.9334 28 31C30.0994 31.0641 31.3043 31.1755 33.5 31.5C38.1893 32.3143 40.8169 32.8679 45.5 34C50.2309 35.6546 52.8649 36.6248 57.5 38.5L70.5 43.5C75.4689 45.4593 78.3187 46.323 83.5 47.5L88 48.5L93 49.5L96.5 50L102 50.5H108L113.5 50L118.5 49C120.259 48.5566 121.244 48.2308 123 47.5C126.759 46.3095 128.952 45.422 133 43.5C136.485 41.7966 138.454 40.7174 142 38.5C146.81 34.5901 149.29 32.2684 153.5 28C148.347 31.4411 145.45 33.3618 140 36.5C136.85 38.3912 135.099 39.2549 132 40.5C128.148 41.952 126.152 42.6296 123 43.5C120.935 44.0072 116.772 45.2945 113.5 45.5C109.508 45.7507 104.5 45.1667 102.5 45C99.1978 44.6284 97.4405 44.8069 94.5 44C89.8137 42.8284 87.1863 42.1716 82.5 41L78 39.5L73.75 37.75L64.5 34L57.5 31.5L47.5 28.5C45.1811 27.6506 43.865 27.3497 41.5 27C38.9494 26.6596 37.6267 26.5424 35.5 26.5C32.4306 26.2786 30.7775 26.2613 28 26.5C26.2426 26.8905 25.2574 27.1095 23.5 27.5C21.9379 28.0858 19.5 29 19.5 29C17.5047 29.6371 16.4087 30.0714 14.5 31C12.6332 32.1289 10 34.5 10 34.5C10 34.5 7.18405 37.0825 5.5 39L1 45" stroke="black"/>
</g>
<path id="onda1" d="M151 4.99997L143.5 8.99997L138.5 12L133 15L127.5 17.5L121.5 20L117.5 21.5L113 22.5L106 23.5L99.5 24L93.5 24L87.5 23.5L85 23L83 22.5L80.75 22L78.5 21.5L73.75 19.5L69 17.5L76.5 22.5L80.5 24L85 25.5L89.5 26.5L93.5 27C99.5 27.5 110 28.5 121.5 25C123.9 24.2 126.833 23 128 22.5L138 17.5L151.5 9.49999C153.993 8.19066 155.417 7.53443 158 6.49999C160.69 5.64152 162.224 5.32617 165 4.99997L170.5 4.49999H176L185 6.49998L198.5 12L193 8.49998L185 4.99997C183 4.16664 178.4 2.29997 176 1.49997C173.6 0.699974 167 0.999995 166.5 0.999998L164.5 0.999992L162.934 1.24999L159.5 1.99998L155 3.49998L151 4.99997Z" stroke="black"/>
</svg>
